<?xml version="1.0" standalone="no"?>
<!DOCTYPE svg PUBLIC "-//W3C//DTD SVG 20010904//EN"
 "http://www.w3.org/TR/2001/REC-SVG-20010904/DTD/svg10.dtd">
<svg version="1.0" xmlns="http://www.w3.org/2000/svg"
 width="512.000000pt" height="512.000000pt" viewBox="0 0 512.000000 512.000000"
 preserveAspectRatio="xMidYMid meet">
<metadata>
Created by potrace 1.11, written by Peter Selinger 2001-2013
</metadata>
<g transform="translate(0.000000,512.000000) scale(0.100000,-0.100000)"
fill="#000000" stroke="none">
<path d="M2153 5105 c-274 -49 -516 -221 -647 -457 -23 -42 -44 -68 -54 -68
-26 0 -120 -47 -162 -80 -50 -40 -97 -111 -117 -180 -15 -48 -17 -125 -18
-618 -1 -438 2 -574 12 -614 26 -101 105 -191 203 -233 25 -10 46 -19 47 -20
3 -1 10 -50 17 -120 15 -142 88 -330 181 -470 97 -146 264 -298 409 -372 l49
-25 -6 -57 c-20 -189 -166 -313 -377 -320 -99 -3 -226 -29 -302 -61 -202 -84
-369 -238 -461 -425 -83 -169 -94 -239 -93 -621 1 -286 3 -314 19 -332 39 -43
112 -34 138 17 8 14 17 28 21 31 3 3 702 5 1553 5 l1547 0 12 -30 c13 -31 51
-55 86 -55 10 0 32 11 47 24 l28 24 0 334 c-1 310 -2 339 -22 416 -41 154
-114 287 -215 393 -60 63 -151 139 -166 139 -5 0 -15 6 -21 14 -16 20 -149 75
-236 98 -38 10 -115 21 -170 25 -165 9 -259 51 -335 150 -38 50 -62 66 -104
67 -28 1 -31 5 -38 41 -14 82 -12 88 40 109 26 11 80 39 121 63 346 204 561
574 562 969 1 49 5 57 44 77 43 22 78 56 110 105 18 27 35 42 49 42 11 0 32 9
46 20 l25 19 2 569 c2 492 0 577 -13 618 -48 149 -139 260 -265 324 -44 21
-96 42 -115 46 -27 5 -34 10 -29 23 62 157 115 310 115 332 0 28 -17 51 -49
69 -29 15 -1380 11 -1468 -5z"/>
</g>
</svg>
